<svg id="visual" viewBox="0 0 900 600" width="900" height="600" xmlns="http://www.w3.org/2000/svg" xmlns:xlink="http://www.w3.org/1999/xlink" version="1.1"><path d="M0 7L30 10C60 13 120 19 180 21C240 23 300 21 360 26C420 31 480 43 540 47C600 51 660 47 720 47C780 47 840 51 870 53L900 55L900 0L870 0C840 0 780 0 720 0C660 0 600 0 540 0C480 0 420 0 360 0C300 0 240 0 180 0C120 0 60 0 30 0L0 0Z" fill="#6198ff"></path><path d="M0 49L30 47C60 45 120 41 180 43C240 45 300 53 360 61C420 69 480 77 540 82C600 87 660 89 720 99C780 109 840 127 870 136L900 145L900 53L870 51C840 49 780 45 720 45C660 45 600 49 540 45C480 41 420 29 360 24C300 19 240 21 180 19C120 17 60 11 30 8L0 5Z" fill="#377dff"></path><path d="M0 73L30 72C60 71 120 69 180 76C240 83 300 99 360 107C420 115 480 115 540 113C600 111 660 107 720 113C780 119 840 135 870 143L900 151L900 143L870 134C840 125 780 107 720 97C660 87 600 85 540 80C480 75 420 67 360 59C300 51 240 43 180 41C120 39 60 43 30 45L0 47Z" fill="#0063f7"></path><path d="M0 139L30 135C60 131 120 123 180 123C240 123 300 131 360 133C420 135 480 131 540 135C600 139 660 151 720 159C780 167 840 171 870 173L900 175L900 149L870 141C840 133 780 117 720 111C660 105 600 109 540 111C480 113 420 113 360 105C300 97 240 81 180 74C120 67 60 69 30 70L0 71Z" fill="#0055d1"></path><path d="M0 151L30 150C60 149 120 147 180 150C240 153 300 161 360 167C420 173 480 177 540 178C600 179 660 177 720 181C780 185 840 195 870 200L900 205L900 173L870 171C840 169 780 165 720 157C660 149 600 137 540 133C480 129 420 133 360 131C300 129 240 121 180 121C120 121 60 129 30 133L0 137Z" fill="#004cbb"></path><path d="M0 157L30 164C60 171 120 185 180 194C240 203 300 207 360 209C420 211 480 211 540 209C600 207 660 203 720 210C780 217 840 235 870 244L900 253L900 203L870 198C840 193 780 183 720 179C660 175 600 177 540 176C480 175 420 171 360 165C300 159 240 151 180 148C120 145 60 147 30 148L0 149Z" fill="#004cbb"></path><path d="M0 277L30 275C60 273 120 269 180 283C240 297 300 329 360 339C420 349 480 337 540 327C600 317 660 309 720 301C780 293 840 285 870 281L900 277L900 251L870 242C840 233 780 215 720 208C660 201 600 205 540 207C480 209 420 209 360 207C300 205 240 201 180 192C120 183 60 169 30 162L0 155Z" fill="#0055d1"></path><path d="M0 397L30 394C60 391 120 385 180 396C240 407 300 435 360 440C420 445 480 427 540 414C600 401 660 393 720 372C780 351 840 317 870 300L900 283L900 275L870 279C840 283 780 291 720 299C660 307 600 315 540 325C480 335 420 347 360 337C300 327 240 295 180 281C120 267 60 271 30 273L0 275Z" fill="#0063f7"></path><path d="M0 457L30 458C60 459 120 461 180 480C240 499 300 535 360 536C420 537 480 503 540 482C600 461 660 453 720 442C780 431 840 417 870 410L900 403L900 281L870 298C840 315 780 349 720 370C660 391 600 399 540 412C480 425 420 443 360 438C300 433 240 405 180 394C120 383 60 389 30 392L0 395Z" fill="#377dff"></path><path d="M0 601L30 601C60 601 120 601 180 601C240 601 300 601 360 601C420 601 480 601 540 601C600 601 660 601 720 601C780 601 840 601 870 601L900 601L900 401L870 408C840 415 780 429 720 440C660 451 600 459 540 480C480 501 420 535 360 534C300 533 240 497 180 478C120 459 60 457 30 456L0 455Z" fill="#6198ff"></path></svg>